<?xml version="1.0" encoding="utf-8"?>
<!-- Created with WebLogo -->
<svg xmlns="http://www.w3.org/2000/svg" xmlns:xlink="http://www.w3.org/1999/xlink" width="300" height="50" style="background-color:#FFFFFF">


<g transform="scale(6.0653886184914345, -6.0653886184914345), translate(1.67696932374243 -2.234379947818748)">
  <text transform="scale(1 -1) " font-size="3" font-family="Arial"  stroke-width="0" fill="#000000">miter</text>
  <polyline points="0,-2, 6,-2, 6,-5, 0,-5"  stroke-width="2" stroke="#008000" fill="none" />
  <line x1="0" y1="-2" x2="6" y2="-2"  stroke-width="2" stroke="#000000" />
  <line x1="6" y1="-2.001" x2="6" y2="-4.999"  stroke-width="2" stroke="#000000" />
  <line x1="6" y1="-5" x2="0" y2="-5"  stroke-width="2" stroke="#000000" />
  <text transform="translate(20 0) scale(1 -1) " font-size="3" font-family="Arial"  stroke-width="0" fill="#000000">round</text>
  <polyline points="20,-2, 26,-2, 26,-5, 20,-5"  stroke-width="2" stroke="#008000" stroke-linejoin="round" fill="none" />
  <line x1="20" y1="-2" x2="26" y2="-2"  stroke-width="2" stroke="#000000" stroke-linejoin="round" />
  <line x1="26" y1="-2.001" x2="26" y2="-4.999"  stroke-width="2" stroke="#000000" stroke-linejoin="round" />
  <line x1="26" y1="-5" x2="20" y2="-5"  stroke-width="2" stroke="#000000" stroke-linejoin="round" />
  <text transform="translate(40 0) scale(1 -1) " font-size="3" font-family="Arial"  stroke-width="0" fill="#000000">bevel</text>
  <polyline points="40,-2, 46,-2, 46,-5, 40,-5"  stroke-width="2" stroke="#008000" stroke-linejoin="bevel" fill="none" />
  <line x1="40" y1="-2" x2="46" y2="-2"  stroke-width="2" stroke="#000000" stroke-linejoin="bevel" />
  <line x1="46" y1="-2.001" x2="46" y2="-4.999"  stroke-width="2" stroke="#000000" stroke-linejoin="bevel" />
  <line x1="46" y1="-5" x2="40" y2="-5"  stroke-width="2" stroke="#000000" stroke-linejoin="bevel" />
 </g>
</svg>