<?xml version="1.0" encoding="utf-8"?>
<svg xmlns="http://www.w3.org/2000/svg" width="300" height="45" style="background-color:#FFF">

<g transform="scale(0.95, -0.95), translate(163.7567756292818 -23.4888586405263)">
  <circle cx="-140" r="22" stroke="#F00" fill="none"/>
  <circle cx="-80" cy="5" r="12" stroke="#008000" fill="none"/>
  <circle r="22" stroke="#008000" fill="none"/>
  <circle cx="140" cy="7" r="10" stroke="#00F" fill="none"/>
  <circle cx="140" cy="-7" r="10" stroke="#00F" fill="none"/>
  <line y2="22" stroke-width="0.2" stroke="#000" stroke-opacity="53.3333%" />
  <circle cy="22" r="1"/>
  <line x2="0.9274" y2="21.9804" stroke-width="0.2" stroke="#000" stroke-opacity="53.3333%" />
  <circle cx="0.9274" cy="21.9804" r="1"/>
  <line x2="1.8532" y2="21.9218" stroke-width="0.2" stroke="#000" stroke-opacity="53.3333%" />
  <circle cx="1.8532" cy="21.9218" r="1"/>
  <line x2="2.7757" y2="21.8242" stroke-width="0.2" stroke="#000" stroke-opacity="53.3333%" />
  <circle cx="2.7757" cy="21.8242" r="1"/>
  <line x2="3.6933" y2="21.6878" stroke-width="0.2" stroke="#000" stroke-opacity="53.3333%" />
  <circle cx="3.6933" cy="21.6878" r="1"/>
  <line x2="4.6043" y2="21.5128" stroke-width="0.2" stroke="#000" stroke-opacity="53.3333%" />
  <circle cx="4.6043" cy="21.5128" r="1"/>
  <line x2="5.5071" y2="21.2996" stroke-width="0.2" stroke="#000" stroke-opacity="53.3333%" />
  <circle cx="5.5071" cy="21.2996" r="1"/>
  <line x2="6.4001" y2="21.0485" stroke-width="0.2" stroke="#000" stroke-opacity="53.3333%" />
  <circle cx="6.4001" cy="21.0485" r="1"/>
  <line x2="7.2818" y2="20.76" stroke-width="0.2" stroke="#000" stroke-opacity="53.3333%" />
  <circle cx="7.2818" cy="20.76" r="1"/>
  <line x2="8.1505" y2="20.4345" stroke-width="0.2" stroke="#000" stroke-opacity="53.3333%" />
  <circle cx="8.1505" cy="20.4345" r="1"/>
  <line x2="9.0047" y2="20.0728" stroke-width="0.2" stroke="#000" stroke-opacity="53.3333%" />
  <circle cx="9.0047" cy="20.0728" r="1"/>
  <line x2="9.8429" y2="19.6753" stroke-width="0.2" stroke="#000" stroke-opacity="53.3333%" />
  <circle cx="9.8429" cy="19.6753" r="1"/>
  <line x2="10.6636" y2="19.2429" stroke-width="0.2" stroke="#000" stroke-opacity="53.3333%" />
  <circle cx="10.6636" cy="19.2429" r="1"/>
  <line x2="11.4653" y2="18.7762" stroke-width="0.2" stroke="#000" stroke-opacity="53.3333%" />
  <circle cx="11.4653" cy="18.7762" r="1"/>
  <line x2="12.2466" y2="18.2762" stroke-width="0.2" stroke="#000" stroke-opacity="53.3333%" />
  <circle cx="12.2466" cy="18.2762" r="1"/>
  <line x2="13.0062" y2="17.7437" stroke-width="0.2" stroke="#000" stroke-opacity="53.3333%" />
  <circle cx="13.0062" cy="17.7437" r="1"/>
  <line x2="13.7427" y2="17.1796" stroke-width="0.2" stroke="#000" stroke-opacity="53.3333%" />
  <circle cx="13.7427" cy="17.1796" r="1"/>
  <line x2="14.4547" y2="16.585" stroke-width="0.2" stroke="#000" stroke-opacity="53.3333%" />
  <circle cx="14.4547" cy="16.585" r="1"/>
  <line x2="15.141" y2="15.9609" stroke-width="0.2" stroke="#000" stroke-opacity="53.3333%" />
  <circle cx="15.141" cy="15.9609" r="1"/>
  <line x2="15.8004" y2="15.3084" stroke-width="0.2" stroke="#000" stroke-opacity="53.3333%" />
  <circle cx="15.8004" cy="15.3084" r="1"/>
  <line x2="16.4317" y2="14.6287" stroke-width="0.2" stroke="#000" stroke-opacity="53.3333%" />
  <circle cx="16.4317" cy="14.6287" r="1"/>
  <line x2="17.0338" y2="13.923" stroke-width="0.2" stroke="#000" stroke-opacity="53.3333%" />
  <circle cx="17.0338" cy="13.923" r="1"/>
  <line x2="17.6056" y2="13.1925" stroke-width="0.2" stroke="#000" stroke-opacity="53.3333%" />
  <circle cx="17.6056" cy="13.1925" r="1"/>
  <line x2="18.1461" y2="12.4386" stroke-width="0.2" stroke="#000" stroke-opacity="53.3333%" />
  <circle cx="18.1461" cy="12.4386" r="1"/>
  <line x2="18.6543" y2="11.6626" stroke-width="0.2" stroke="#000" stroke-opacity="53.3333%" />
  <circle cx="18.6543" cy="11.6626" r="1"/>
  <line x2="19.1294" y2="10.8658" stroke-width="0.2" stroke="#000" stroke-opacity="53.3333%" />
  <circle cx="19.1294" cy="10.8658" r="1"/>
  <line x2="19.5705" y2="10.0497" stroke-width="0.2" stroke="#000" stroke-opacity="53.3333%" />
  <circle cx="19.5705" cy="10.0497" r="1"/>
  <line x2="19.9767" y2="9.2158" stroke-width="0.2" stroke="#000" stroke-opacity="53.3333%" />
  <circle cx="19.9767" cy="9.2158" r="1"/>
  <line x2="20.3475" y2="8.3654" stroke-width="0.2" stroke="#000" stroke-opacity="53.3333%" />
  <circle cx="20.3475" cy="8.3654" r="1"/>
  <line x2="20.682" y2="7.5002" stroke-width="0.2" stroke="#000" stroke-opacity="53.3333%" />
  <circle cx="20.682" cy="7.5002" r="1"/>
  <line x2="20.9798" y2="6.6217" stroke-width="0.2" stroke="#000" stroke-opacity="53.3333%" />
  <circle cx="20.9798" cy="6.6217" r="1"/>
  <line x2="21.2403" y2="5.7313" stroke-width="0.2" stroke="#000" stroke-opacity="53.3333%" />
  <circle cx="21.2403" cy="5.7313" r="1"/>
  <line x2="21.4631" y2="4.8308" stroke-width="0.2" stroke="#000" stroke-opacity="53.3333%" />
  <circle cx="21.4631" cy="4.8308" r="1"/>
  <line x2="21.6476" y2="3.9217" stroke-width="0.2" stroke="#000" stroke-opacity="53.3333%" />
  <circle cx="21.6476" cy="3.9217" r="1"/>
  <line x2="21.7937" y2="3.0057" stroke-width="0.2" stroke="#000" stroke-opacity="53.3333%" />
  <circle cx="21.7937" cy="3.0057" r="1"/>
  <line x2="21.901" y2="2.0842" stroke-width="0.2" stroke="#000" stroke-opacity="53.3333%" />
  <circle cx="21.901" cy="2.0842" r="1"/>
  <line x2="131.6684" y2="12.5304" stroke-width="0.2" stroke="#000" stroke-opacity="53.3333%" />
  <circle cx="131.6684" cy="12.5304" r="1"/>
  <line x2="21.9694" y2="1.1591" stroke-width="0.2" stroke="#000" stroke-opacity="53.3333%" />
  <circle cx="21.9694" cy="1.1591" r="1"/>
  <line x2="130.001" y2="6.8589" stroke-width="0.2" stroke="#000" stroke-opacity="53.3333%" />
  <circle cx="130.001" cy="6.8589" r="1"/>
  <line x2="21.9988" y2="0.2319" stroke-width="0.2" stroke="#000" stroke-opacity="53.3333%" />
  <circle cx="21.9988" cy="0.2319" r="1"/>
  <line x2="131.7227" y2="1.3887" stroke-width="0.2" stroke="#000" stroke-opacity="53.3333%" />
  <circle cx="131.7227" cy="1.3887" r="1"/>
  <line x2="134.6038" y2="1.4191" stroke-width="0.2" stroke="#000" stroke-opacity="53.3333%" />
  <circle cx="134.6038" cy="1.4191" r="1"/>
  <line x2="21.989" y2="-0.6957" stroke-width="0.2" stroke="#000" stroke-opacity="53.3333%" />
  <circle cx="21.989" cy="-0.6957" r="1"/>
  <line x2="130.4218" y2="-4.1262" stroke-width="0.2" stroke="#000" stroke-opacity="53.3333%" />
  <circle cx="130.4218" cy="-4.1262" r="1"/>
  <line x2="21.9401" y2="-1.622" stroke-width="0.2" stroke="#000" stroke-opacity="53.3333%" />
  <circle cx="21.9401" cy="-1.622" r="1"/>
  <line x2="130.354" y2="-9.6371" stroke-width="0.2" stroke="#000" stroke-opacity="53.3333%" />
  <circle cx="130.354" cy="-9.6371" r="1"/>
  <line x2="21.8522" y2="-2.5455" stroke-width="0.2" stroke="#000" stroke-opacity="53.3333%" />
  <circle cx="21.8522" cy="-2.5455" r="1"/>
  <line x2="135.1458" y2="-15.7428" stroke-width="0.2" stroke="#000" stroke-opacity="53.3333%" />
  <circle cx="135.1458" cy="-15.7428" r="1"/>
  <line x2="21.7255" y2="-3.4645" stroke-width="0.2" stroke="#000" stroke-opacity="53.3333%" />
  <circle cx="21.7255" cy="-3.4645" r="1"/>
  <line x2="21.5601" y2="-4.3773" stroke-width="0.2" stroke="#000" stroke-opacity="53.3333%" />
  <circle cx="21.5601" cy="-4.3773" r="1"/>
  <line x2="21.3564" y2="-5.2823" stroke-width="0.2" stroke="#000" stroke-opacity="53.3333%" />
  <circle cx="21.3564" cy="-5.2823" r="1"/>
  <line x2="21.1148" y2="-6.1779" stroke-width="0.2" stroke="#000" stroke-opacity="53.3333%" />
  <circle cx="21.1148" cy="-6.1779" r="1"/>
  <line x2="20.8356" y2="-7.0625" stroke-width="0.2" stroke="#000" stroke-opacity="53.3333%" />
  <circle cx="20.8356" cy="-7.0625" r="1"/>
  <line x2="20.5193" y2="-7.9346" stroke-width="0.2" stroke="#000" stroke-opacity="53.3333%" />
  <circle cx="20.5193" cy="-7.9346" r="1"/>
  <line x2="20.1666" y2="-8.7926" stroke-width="0.2" stroke="#000" stroke-opacity="53.3333%" />
  <circle cx="20.1666" cy="-8.7926" r="1"/>
  <line x2="19.778" y2="-9.6349" stroke-width="0.2" stroke="#000" stroke-opacity="53.3333%" />
  <circle cx="19.778" cy="-9.6349" r="1"/>
  <line x2="19.3542" y2="-10.4601" stroke-width="0.2" stroke="#000" stroke-opacity="53.3333%" />
  <circle cx="19.3542" cy="-10.4601" r="1"/>
  <line x2="18.8961" y2="-11.2667" stroke-width="0.2" stroke="#000" stroke-opacity="53.3333%" />
  <circle cx="18.8961" cy="-11.2667" r="1"/>
  <line x2="18.4043" y2="-12.0533" stroke-width="0.2" stroke="#000" stroke-opacity="53.3333%" />
  <circle cx="18.4043" cy="-12.0533" r="1"/>
  <line x2="17.8798" y2="-12.8184" stroke-width="0.2" stroke="#000" stroke-opacity="53.3333%" />
  <circle cx="17.8798" cy="-12.8184" r="1"/>
  <line x2="17.3235" y2="-13.5608" stroke-width="0.2" stroke="#000" stroke-opacity="53.3333%" />
  <circle cx="17.3235" cy="-13.5608" r="1"/>
  <line x2="16.7365" y2="-14.279" stroke-width="0.2" stroke="#000" stroke-opacity="53.3333%" />
  <circle cx="16.7365" cy="-14.279" r="1"/>
  <line x2="16.1196" y2="-14.9719" stroke-width="0.2" stroke="#000" stroke-opacity="53.3333%" />
  <circle cx="16.1196" cy="-14.9719" r="1"/>
  <line x2="15.4741" y2="-15.6381" stroke-width="0.2" stroke="#000" stroke-opacity="53.3333%" />
  <circle cx="15.4741" cy="-15.6381" r="1"/>
  <line x2="14.8011" y2="-16.2766" stroke-width="0.2" stroke="#000" stroke-opacity="53.3333%" />
  <circle cx="14.8011" cy="-16.2766" r="1"/>
  <line x2="14.1018" y2="-16.8861" stroke-width="0.2" stroke="#000" stroke-opacity="53.3333%" />
  <circle cx="14.1018" cy="-16.8861" r="1"/>
  <line x2="13.3774" y2="-17.4655" stroke-width="0.2" stroke="#000" stroke-opacity="53.3333%" />
  <circle cx="13.3774" cy="-17.4655" r="1"/>
  <line x2="12.6292" y2="-18.014" stroke-width="0.2" stroke="#000" stroke-opacity="53.3333%" />
  <circle cx="12.6292" cy="-18.014" r="1"/>
  <line x2="11.8586" y2="-18.5303" stroke-width="0.2" stroke="#000" stroke-opacity="53.3333%" />
  <circle cx="11.8586" cy="-18.5303" r="1"/>
  <line x2="11.0669" y2="-19.0138" stroke-width="0.2" stroke="#000" stroke-opacity="53.3333%" />
  <circle cx="11.0669" cy="-19.0138" r="1"/>
  <line x2="10.2555" y2="-19.4634" stroke-width="0.2" stroke="#000" stroke-opacity="53.3333%" />
  <circle cx="10.2555" cy="-19.4634" r="1"/>
  <line x2="9.4259" y2="-19.8785" stroke-width="0.2" stroke="#000" stroke-opacity="53.3333%" />
  <circle cx="9.4259" cy="-19.8785" r="1"/>
  <line x2="8.5795" y2="-20.2581" stroke-width="0.2" stroke="#000" stroke-opacity="53.3333%" />
  <circle cx="8.5795" cy="-20.2581" r="1"/>
  <line x2="7.7178" y2="-20.6018" stroke-width="0.2" stroke="#000" stroke-opacity="53.3333%" />
  <circle cx="7.7178" cy="-20.6018" r="1"/>
  <line x2="6.8425" y2="-20.9089" stroke-width="0.2" stroke="#000" stroke-opacity="53.3333%" />
  <circle cx="6.8425" cy="-20.9089" r="1"/>
  <line x2="5.9549" y2="-21.1787" stroke-width="0.2" stroke="#000" stroke-opacity="53.3333%" />
  <circle cx="5.9549" cy="-21.1787" r="1"/>
  <line x2="5.0568" y2="-21.4109" stroke-width="0.2" stroke="#000" stroke-opacity="53.3333%" />
  <circle cx="5.0568" cy="-21.4109" r="1"/>
  <line x2="4.1497" y2="-21.6051" stroke-width="0.2" stroke="#000" stroke-opacity="53.3333%" />
  <circle cx="4.1497" cy="-21.6051" r="1"/>
  <line x2="3.2352" y2="-21.7608" stroke-width="0.2" stroke="#000" stroke-opacity="53.3333%" />
  <circle cx="3.2352" cy="-21.7608" r="1"/>
  <line x2="2.315" y2="-21.8779" stroke-width="0.2" stroke="#000" stroke-opacity="53.3333%" />
  <circle cx="2.315" cy="-21.8779" r="1"/>
  <line x2="1.3907" y2="-21.956" stroke-width="0.2" stroke="#000" stroke-opacity="53.3333%" />
  <circle cx="1.3907" cy="-21.956" r="1"/>
  <line x2="0.4638" y2="-21.9951" stroke-width="0.2" stroke="#000" stroke-opacity="53.3333%" />
  <circle cx="0.4638" cy="-21.9951" r="1"/>
  <line x2="-0.4638" y2="-21.9951" stroke-width="0.2" stroke="#000" stroke-opacity="53.3333%" />
  <circle cx="-0.4638" cy="-21.9951" r="1"/>
  <line x2="-1.3907" y2="-21.956" stroke-width="0.2" stroke="#000" stroke-opacity="53.3333%" />
  <circle cx="-1.3907" cy="-21.956" r="1"/>
  <line x2="-2.315" y2="-21.8779" stroke-width="0.2" stroke="#000" stroke-opacity="53.3333%" />
  <circle cx="-2.315" cy="-21.8779" r="1"/>
  <line x2="-3.2352" y2="-21.7608" stroke-width="0.2" stroke="#000" stroke-opacity="53.3333%" />
  <circle cx="-3.2352" cy="-21.7608" r="1"/>
  <line x2="-4.1497" y2="-21.6051" stroke-width="0.2" stroke="#000" stroke-opacity="53.3333%" />
  <circle cx="-4.1497" cy="-21.6051" r="1"/>
  <line x2="-5.0568" y2="-21.4109" stroke-width="0.2" stroke="#000" stroke-opacity="53.3333%" />
  <circle cx="-5.0568" cy="-21.4109" r="1"/>
  <line x2="-5.9549" y2="-21.1787" stroke-width="0.2" stroke="#000" stroke-opacity="53.3333%" />
  <circle cx="-5.9549" cy="-21.1787" r="1"/>
  <line x2="-6.8425" y2="-20.9089" stroke-width="0.2" stroke="#000" stroke-opacity="53.3333%" />
  <circle cx="-6.8425" cy="-20.9089" r="1"/>
  <line x2="-7.7178" y2="-20.6018" stroke-width="0.2" stroke="#000" stroke-opacity="53.3333%" />
  <circle cx="-7.7178" cy="-20.6018" r="1"/>
  <line x2="-8.5795" y2="-20.2581" stroke-width="0.2" stroke="#000" stroke-opacity="53.3333%" />
  <circle cx="-8.5795" cy="-20.2581" r="1"/>
  <line x2="-9.4259" y2="-19.8785" stroke-width="0.2" stroke="#000" stroke-opacity="53.3333%" />
  <circle cx="-9.4259" cy="-19.8785" r="1"/>
  <line x2="-10.2555" y2="-19.4634" stroke-width="0.2" stroke="#000" stroke-opacity="53.3333%" />
  <circle cx="-10.2555" cy="-19.4634" r="1"/>
  <line x2="-11.0669" y2="-19.0138" stroke-width="0.2" stroke="#000" stroke-opacity="53.3333%" />
  <circle cx="-11.0669" cy="-19.0138" r="1"/>
  <line x2="-11.8586" y2="-18.5303" stroke-width="0.2" stroke="#000" stroke-opacity="53.3333%" />
  <circle cx="-11.8586" cy="-18.5303" r="1"/>
  <line x2="-12.6292" y2="-18.014" stroke-width="0.2" stroke="#000" stroke-opacity="53.3333%" />
  <circle cx="-12.6292" cy="-18.014" r="1"/>
  <line x2="-13.3774" y2="-17.4655" stroke-width="0.2" stroke="#000" stroke-opacity="53.3333%" />
  <circle cx="-13.3774" cy="-17.4655" r="1"/>
  <line x2="-14.1018" y2="-16.8861" stroke-width="0.2" stroke="#000" stroke-opacity="53.3333%" />
  <circle cx="-14.1018" cy="-16.8861" r="1"/>
  <line x2="-14.8011" y2="-16.2766" stroke-width="0.2" stroke="#000" stroke-opacity="53.3333%" />
  <circle cx="-14.8011" cy="-16.2766" r="1"/>
  <line x2="-15.4741" y2="-15.6381" stroke-width="0.2" stroke="#000" stroke-opacity="53.3333%" />
  <circle cx="-15.4741" cy="-15.6381" r="1"/>
  <line x2="-16.1196" y2="-14.9719" stroke-width="0.2" stroke="#000" stroke-opacity="53.3333%" />
  <circle cx="-16.1196" cy="-14.9719" r="1"/>
  <line x2="-16.7365" y2="-14.279" stroke-width="0.2" stroke="#000" stroke-opacity="53.3333%" />
  <circle cx="-16.7365" cy="-14.279" r="1"/>
  <line x2="-17.3235" y2="-13.5608" stroke-width="0.2" stroke="#000" stroke-opacity="53.3333%" />
  <circle cx="-17.3235" cy="-13.5608" r="1"/>
  <line x2="-17.8798" y2="-12.8184" stroke-width="0.2" stroke="#000" stroke-opacity="53.3333%" />
  <circle cx="-17.8798" cy="-12.8184" r="1"/>
  <line x2="-18.4043" y2="-12.0533" stroke-width="0.2" stroke="#000" stroke-opacity="53.3333%" />
  <circle cx="-18.4043" cy="-12.0533" r="1"/>
  <line x2="-18.8961" y2="-11.2667" stroke-width="0.2" stroke="#000" stroke-opacity="53.3333%" />
  <circle cx="-18.8961" cy="-11.2667" r="1"/>
  <line x2="-19.3542" y2="-10.4601" stroke-width="0.2" stroke="#000" stroke-opacity="53.3333%" />
  <circle cx="-19.3542" cy="-10.4601" r="1"/>
  <line x2="-19.778" y2="-9.6349" stroke-width="0.2" stroke="#000" stroke-opacity="53.3333%" />
  <circle cx="-19.778" cy="-9.6349" r="1"/>
  <line x2="-20.1666" y2="-8.7926" stroke-width="0.2" stroke="#000" stroke-opacity="53.3333%" />
  <circle cx="-20.1666" cy="-8.7926" r="1"/>
  <line x2="-20.5193" y2="-7.9346" stroke-width="0.2" stroke="#000" stroke-opacity="53.3333%" />
  <circle cx="-20.5193" cy="-7.9346" r="1"/>
  <line x2="-20.8356" y2="-7.0625" stroke-width="0.2" stroke="#000" stroke-opacity="53.3333%" />
  <circle cx="-20.8356" cy="-7.0625" r="1"/>
  <line x2="-21.1148" y2="-6.1779" stroke-width="0.2" stroke="#000" stroke-opacity="53.3333%" />
  <circle cx="-21.1148" cy="-6.1779" r="1"/>
  <line x2="-21.3564" y2="-5.2823" stroke-width="0.2" stroke="#000" stroke-opacity="53.3333%" />
  <circle cx="-21.3564" cy="-5.2823" r="1"/>
  <line x2="-21.5601" y2="-4.3773" stroke-width="0.2" stroke="#000" stroke-opacity="53.3333%" />
  <circle cx="-21.5601" cy="-4.3773" r="1"/>
  <line x2="-21.7255" y2="-3.4645" stroke-width="0.2" stroke="#000" stroke-opacity="53.3333%" />
  <circle cx="-21.7255" cy="-3.4645" r="1"/>
  <line x2="-123.3394" y2="-14.3675" stroke-width="0.2" stroke="#000" stroke-opacity="53.3333%" />
  <circle cx="-123.3394" cy="-14.3675" r="1"/>
  <line x2="-21.8522" y2="-2.5455" stroke-width="0.2" stroke="#000" stroke-opacity="53.3333%" />
  <circle cx="-21.8522" cy="-2.5455" r="1"/>
  <line x2="-119.8636" y2="-8.8615" stroke-width="0.2" stroke="#000" stroke-opacity="53.3333%" />
  <circle cx="-119.8636" cy="-8.8615" r="1"/>
  <line x2="-74.1592" y2="-5.4826" stroke-width="0.2" stroke="#000" stroke-opacity="53.3333%" />
  <circle cx="-74.1592" cy="-5.4826" r="1"/>
  <line x2="-21.9401" y2="-1.622" stroke-width="0.2" stroke="#000" stroke-opacity="53.3333%" />
  <circle cx="-21.9401" cy="-1.622" r="1"/>
  <line x2="-118.3208" y2="-3.7434" stroke-width="0.2" stroke="#000" stroke-opacity="53.3333%" />
  <circle cx="-118.3208" cy="-3.7434" r="1"/>
  <line x2="-70.421" y2="-2.2279" stroke-width="0.2" stroke="#000" stroke-opacity="53.3333%" />
  <circle cx="-70.421" cy="-2.2279" r="1"/>
  <line x2="-21.989" y2="-0.6957" stroke-width="0.2" stroke="#000" stroke-opacity="53.3333%" />
  <circle cx="-21.989" cy="-0.6957" r="1"/>
  <line x2="-118.0352" y2="1.2444" stroke-width="0.2" stroke="#000" stroke-opacity="53.3333%" />
  <circle cx="-118.0352" cy="1.2444" r="1"/>
  <line x2="-68.7872" y2="0.7252" stroke-width="0.2" stroke="#000" stroke-opacity="53.3333%" />
  <circle cx="-68.7872" cy="0.7252" r="1"/>
  <line x2="-21.9988" y2="0.2319" stroke-width="0.2" stroke="#000" stroke-opacity="53.3333%" />
  <circle cx="-21.9988" cy="0.2319" r="1"/>
  <line x2="-118.9136" y2="6.2739" stroke-width="0.2" stroke="#000" stroke-opacity="53.3333%" />
  <circle cx="-118.9136" cy="6.2739" r="1"/>
  <line x2="-68.0829" y2="3.5921" stroke-width="0.2" stroke="#000" stroke-opacity="53.3333%" />
  <circle cx="-68.0829" cy="3.5921" r="1"/>
  <line x2="-21.9694" y2="1.1591" stroke-width="0.2" stroke="#000" stroke-opacity="53.3333%" />
  <circle cx="-21.9694" cy="1.1591" r="1"/>
  <line x2="-121.2701" y2="11.5408" stroke-width="0.2" stroke="#000" stroke-opacity="53.3333%" />
  <circle cx="-121.2701" cy="11.5408" r="1"/>
  <line x2="-68.0916" y2="6.48" stroke-width="0.2" stroke="#000" stroke-opacity="53.3333%" />
  <circle cx="-68.0916" cy="6.48" r="1"/>
  <line x2="-21.901" y2="2.0842" stroke-width="0.2" stroke="#000" stroke-opacity="53.3333%" />
  <circle cx="-21.901" cy="2.0842" r="1"/>
  <line x2="-126.6186" y2="17.4625" stroke-width="0.2" stroke="#000" stroke-opacity="53.3333%" />
  <circle cx="-126.6186" cy="17.4625" r="1"/>
  <line x2="-68.8752" y2="9.4989" stroke-width="0.2" stroke="#000" stroke-opacity="53.3333%" />
  <circle cx="-68.8752" cy="9.4989" r="1"/>
  <line x2="-21.7937" y2="3.0057" stroke-width="0.2" stroke="#000" stroke-opacity="53.3333%" />
  <circle cx="-21.7937" cy="3.0057" r="1"/>
  <line x2="-70.9225" y2="12.8485" stroke-width="0.2" stroke="#000" stroke-opacity="53.3333%" />
  <circle cx="-70.9225" cy="12.8485" r="1"/>
  <line x2="-21.6476" y2="3.9217" stroke-width="0.2" stroke="#000" stroke-opacity="53.3333%" />
  <circle cx="-21.6476" cy="3.9217" r="1"/>
  <line x2="-21.4631" y2="4.8308" stroke-width="0.2" stroke="#000" stroke-opacity="53.3333%" />
  <circle cx="-21.4631" cy="4.8308" r="1"/>
  <line x2="-21.2403" y2="5.7313" stroke-width="0.2" stroke="#000" stroke-opacity="53.3333%" />
  <circle cx="-21.2403" cy="5.7313" r="1"/>
  <line x2="-20.9798" y2="6.6217" stroke-width="0.2" stroke="#000" stroke-opacity="53.3333%" />
  <circle cx="-20.9798" cy="6.6217" r="1"/>
  <line x2="-20.682" y2="7.5002" stroke-width="0.2" stroke="#000" stroke-opacity="53.3333%" />
  <circle cx="-20.682" cy="7.5002" r="1"/>
  <line x2="-20.3475" y2="8.3654" stroke-width="0.2" stroke="#000" stroke-opacity="53.3333%" />
  <circle cx="-20.3475" cy="8.3654" r="1"/>
  <line x2="-19.9767" y2="9.2158" stroke-width="0.2" stroke="#000" stroke-opacity="53.3333%" />
  <circle cx="-19.9767" cy="9.2158" r="1"/>
  <line x2="-19.5705" y2="10.0497" stroke-width="0.2" stroke="#000" stroke-opacity="53.3333%" />
  <circle cx="-19.5705" cy="10.0497" r="1"/>
  <line x2="-19.1294" y2="10.8658" stroke-width="0.2" stroke="#000" stroke-opacity="53.3333%" />
  <circle cx="-19.1294" cy="10.8658" r="1"/>
  <line x2="-18.6543" y2="11.6626" stroke-width="0.2" stroke="#000" stroke-opacity="53.3333%" />
  <circle cx="-18.6543" cy="11.6626" r="1"/>
  <line x2="-18.1461" y2="12.4386" stroke-width="0.2" stroke="#000" stroke-opacity="53.3333%" />
  <circle cx="-18.1461" cy="12.4386" r="1"/>
  <line x2="-17.6056" y2="13.1925" stroke-width="0.2" stroke="#000" stroke-opacity="53.3333%" />
  <circle cx="-17.6056" cy="13.1925" r="1"/>
  <line x2="-17.0338" y2="13.923" stroke-width="0.2" stroke="#000" stroke-opacity="53.3333%" />
  <circle cx="-17.0338" cy="13.923" r="1"/>
  <line x2="-16.4317" y2="14.6287" stroke-width="0.2" stroke="#000" stroke-opacity="53.3333%" />
  <circle cx="-16.4317" cy="14.6287" r="1"/>
  <line x2="-15.8004" y2="15.3084" stroke-width="0.2" stroke="#000" stroke-opacity="53.3333%" />
  <circle cx="-15.8004" cy="15.3084" r="1"/>
  <line x2="-15.141" y2="15.9609" stroke-width="0.2" stroke="#000" stroke-opacity="53.3333%" />
  <circle cx="-15.141" cy="15.9609" r="1"/>
  <line x2="-14.4547" y2="16.585" stroke-width="0.2" stroke="#000" stroke-opacity="53.3333%" />
  <circle cx="-14.4547" cy="16.585" r="1"/>
  <line x2="-13.7427" y2="17.1796" stroke-width="0.2" stroke="#000" stroke-opacity="53.3333%" />
  <circle cx="-13.7427" cy="17.1796" r="1"/>
  <line x2="-13.0062" y2="17.7437" stroke-width="0.2" stroke="#000" stroke-opacity="53.3333%" />
  <circle cx="-13.0062" cy="17.7437" r="1"/>
  <line x2="-12.2466" y2="18.2762" stroke-width="0.2" stroke="#000" stroke-opacity="53.3333%" />
  <circle cx="-12.2466" cy="18.2762" r="1"/>
  <line x2="-11.4653" y2="18.7762" stroke-width="0.2" stroke="#000" stroke-opacity="53.3333%" />
  <circle cx="-11.4653" cy="18.7762" r="1"/>
  <line x2="-10.6636" y2="19.2429" stroke-width="0.2" stroke="#000" stroke-opacity="53.3333%" />
  <circle cx="-10.6636" cy="19.2429" r="1"/>
  <line x2="-9.8429" y2="19.6753" stroke-width="0.2" stroke="#000" stroke-opacity="53.3333%" />
  <circle cx="-9.8429" cy="19.6753" r="1"/>
  <line x2="-9.0047" y2="20.0728" stroke-width="0.2" stroke="#000" stroke-opacity="53.3333%" />
  <circle cx="-9.0047" cy="20.0728" r="1"/>
  <line x2="-8.1505" y2="20.4345" stroke-width="0.2" stroke="#000" stroke-opacity="53.3333%" />
  <circle cx="-8.1505" cy="20.4345" r="1"/>
  <line x2="-7.2818" y2="20.76" stroke-width="0.2" stroke="#000" stroke-opacity="53.3333%" />
  <circle cx="-7.2818" cy="20.76" r="1"/>
  <line x2="-6.4001" y2="21.0485" stroke-width="0.2" stroke="#000" stroke-opacity="53.3333%" />
  <circle cx="-6.4001" cy="21.0485" r="1"/>
  <line x2="-5.5071" y2="21.2996" stroke-width="0.2" stroke="#000" stroke-opacity="53.3333%" />
  <circle cx="-5.5071" cy="21.2996" r="1"/>
  <line x2="-4.6043" y2="21.5128" stroke-width="0.2" stroke="#000" stroke-opacity="53.3333%" />
  <circle cx="-4.6043" cy="21.5128" r="1"/>
  <line x2="-3.6933" y2="21.6878" stroke-width="0.2" stroke="#000" stroke-opacity="53.3333%" />
  <circle cx="-3.6933" cy="21.6878" r="1"/>
  <line x2="-2.7757" y2="21.8242" stroke-width="0.2" stroke="#000" stroke-opacity="53.3333%" />
  <circle cx="-2.7757" cy="21.8242" r="1"/>
  <line x2="-1.8532" y2="21.9218" stroke-width="0.2" stroke="#000" stroke-opacity="53.3333%" />
  <circle cx="-1.8532" cy="21.9218" r="1"/>
  <line x2="-0.9274" y2="21.9804" stroke-width="0.2" stroke="#000" stroke-opacity="53.3333%" />
  <circle cx="-0.9274" cy="21.9804" r="1"/>
  <line y2="22" stroke-width="0.2" stroke="#000" stroke-opacity="53.3333%" />
  <circle cy="22" r="1"/>
 </g>
</svg>