<?xml version="1.0" encoding="utf-8"?>
<svg xmlns="http://www.w3.org/2000/svg" width="300" height="45">

<g transform="scale(0.635, -0.635), translate(52 -55.9)">
  <polygon points="50,0, -50,0, -25,40, 25,40"  stroke="#000" fill="#008000" />
  <line y1="-1.5" y2="1.5" stroke-width="100" stroke="#F00" />
  <line y2="40" stroke-width="3" stroke="#00F" />
  <line y1="41.5" y2="38.5" stroke-width="50" stroke="#800080" />
  <text transform="translate(57 35) scale(1 -1) " font-size="14" font-family="Arial"  fill="#800080">endWidth 50</text>
  <text transform="translate(57 16.8) scale(1 -1) " font-size="14" font-family="Arial"  fill="#00F">height 40</text>
  <text transform="translate(57 -1.4) scale(1 -1) " font-size="14" font-family="Arial"  fill="#F00">startWidth 100</text>
  <line x1="197" y1="-1.4" x2="197" stroke="#000" />
  <rect x="167" width="60" height="40" stroke="#000" fill="#008000" />
  <polygon points="297,0, 237,0, 262,40, 272,40"  stroke="#000" fill="#008000" />
  <polygon points="322,0, 312,0, 287,40, 347,40"  stroke="#000" fill="#008000" />
  <polygon points="417,0, 357,0, 417,40, 357,40"  stroke="#000" fill="#008000" />
 </g>
</svg>