<?xml version="1.0" encoding="utf-8"?>
<svg xmlns="http://www.w3.org/2000/svg" width="450" height="200">

<g transform="scale(0.40773077203692987, -0.40773077203692987), translate(506.1467794432713 -473.55436856579956)">
  <line x1="-450" x2="-450" y2="100" stroke-width="30" stroke="#0F0" stroke-linejoin="round" stroke-linecap="round" />
  <polygon points="-450,0, -450,100"  stroke-width="10" stroke="#000" stroke-linejoin="round" fill="none" />
  <path d="M -150 0 A 100 100 0 0 0 -150 141.4214"  stroke-width="30" stroke="#0F0" stroke-linejoin="round" stroke-linecap="round" fill="none"/>
  <path d="M-150 0 A 100 100 0 0 0 -150 141.4214 A 100 100 0 0 0 -150 0"  stroke-width="10" stroke="#000" stroke-linejoin="round" stroke-linecap="round" fill="none"/>
  <path d="M-150 0 A 100 100 0 0 0 -150 141.4214 A 100 100 0 0 0 -150 0 z"  stroke-width="10" stroke="#000" stroke-linejoin="round" fill="none"/>
  <path d="M150 0 A 100 100 0 0 0 23.5089 63.2456 A 200 200 0 0 0 150 316.2278"  stroke-width="30" stroke="#0F0" stroke-linejoin="round" stroke-linecap="round" fill="none"/>
  <path d="M150 0 A 100 100 0 0 0 23.5089 63.2456 A 200 200 0 0 0 150 316.2278 A 200 200 0 0 0 276.4911 63.2456 A 100 100 0 0 0 150 0"  stroke-width="10" stroke="#000" stroke-linejoin="round" stroke-linecap="round" fill="none"/>
  <path d="M150 0 A 100 100 0 0 0 23.5089 63.2456 A 200 200 0 0 0 150 316.2278 A 200 200 0 0 0 276.4911 63.2456 A 100 100 0 0 0 150 0 z"  stroke-width="10" stroke="#000" stroke-linejoin="round" fill="none"/>
  <path d="M450 456.8443 A 200 200 0 0 1 365.0292 187.0667 A 100 100 0 0 0 373.9783 119.2506 A 100 100 0 0 1 450 0"  stroke-width="30" stroke="#0F0" stroke-linejoin="round" stroke-linecap="round" fill="none"/>
  <path d="M526.0217 119.2506 A 100 100 0 0 0 534.9708 187.0667 A 200 200 0 0 1 450 456.8443 A 200 200 0 0 1 365.0292 187.0667 A 100 100 0 0 0 373.9783 119.2506 A 100 100 0 0 1 450 0 A 100 100 0 0 1 526.0217 119.2506"  stroke-width="10" stroke="#000" stroke-linejoin="round" stroke-linecap="round" fill="none"/>
  <path d="M450 0 A 100 100 0 0 0 373.9783 119.2506 A 100 100 0 0 1 365.0292 187.0667 A 200 200 0 0 0 450 456.8443 A 200 200 0 0 0 534.9708 187.0667 A 100 100 0 0 1 526.0217 119.2506 A 100 100 0 0 0 450 0 z"  stroke-width="10" stroke="#000" stroke-linejoin="round" fill="none"/>
 </g>
</svg>