<?xml version="1.0" encoding="utf-8"?>
<svg xmlns="http://www.w3.org/2000/svg" width="550" height="800">

<g transform="scale(7.953225013898509, -7.953225013898509), translate(34.474284009611495 -100.27062350637712)">
  <line y1="50" x2="17" y2="50" stroke-width="75" stroke="#FFF" />
  <path d="M0 0 A 38 38 0 0 1 16.1129 11.2824 A 70 70 0 0 1 31.4264 44.1222 A 203 203 0 0 1 34.0159 65.2122 A 32.5 32.5 0 0 1 1.5951 99.9793 L 0 99.9793 L 0 55.4793 A 0.5 0.5 0 0 0 0.4699 55.1503 A 25 25 0 0 0 1.9624 47.4722 L 2.2066 40.4765 A 12 12 0 0 1 4.0228 34.5363 A 20 20 0 0 0 6.5492 28.4369 A 1 1 0 0 0 5.2825 27.2557 A 7 7 0 0 1 1.6612 27.3821 A 7.3847 7.3847 0 0 0 0 27.1928 L 0 21.6928 A 50 50 0 0 1 15.7083 25.1034 A 0.3 0.3 0 0 0 16.0358 24.6178 A 70 70 0 0 0 6.8972 16.5326 A 11.5954 11.5954 0 0 0 0 14.2583 z" />
  <path d="M4.3 47.8 A 3 3 0 0 0 5.3716 50.0981 A 10 10 0 0 0 7.4158 51.4256 A 24 24 0 0 0 23.7428 53.1417 A 0.8 0.8 0 0 0 24.0195 51.7182 A 10 10 0 0 0 22.8364 50.9789 A 50 50 0 0 0 10.6104 46.4078 A 10 10 0 0 0 5.5374 46.5584 A 1.8 1.8 0 0 0 4.4653 47.4235 z"  fill="#FFF"/>
  <path d="M3.2 55 A 0.7 0.7 0 0 0 3.45 55.5362 A 35 35 0 0 0 11.7118 60.6988 A 5 5 0 0 0 14.5277 61.0695 A 70 70 0 0 0 26.2515 58.1573 A 0.32 0.32 0 0 0 26.0983 57.5384 A 200 200 0 0 1 14.6728 58.9919 A 8 8 0 0 1 10.8436 58.4264 A 53 53 0 0 1 3.6482 54.7981 A 0.3 0.3 0 0 0 3.2364 54.8999 z"  fill="#FFF"/>
  <line y1="50" x2="-17" y2="50" stroke-width="75" stroke="#000" />
  <path d="M0 0 A 38 38 0 0 0 -16.1129 11.2824 A 70 70 0 0 0 -31.4264 44.1222 A 203 203 0 0 0 -34.0159 65.2122 A 32.5 32.5 0 0 0 -1.5951 99.9793 L 0 99.9793 L 0 55.4793 A 0.5 0.5 0 0 1 -0.4699 55.1503 A 25 25 0 0 1 -1.9624 47.4722 L -2.2066 40.4765 A 12 12 0 0 0 -4.0228 34.5363 A 20 20 0 0 1 -6.5492 28.4369 A 1 1 0 0 1 -5.2825 27.2557 A 7 7 0 0 0 -1.6612 27.3821 A 7.3847 7.3847 0 0 1 0 27.1928 L 0 21.6928 A 50 50 0 0 0 -15.7083 25.1034 A 0.3 0.3 0 0 1 -16.0358 24.6178 A 70 70 0 0 1 -6.8972 16.5326 A 11.5954 11.5954 0 0 1 0 14.2583 z"  fill="#FFF"/>
  <path d="M-4.3 47.8 A 3 3 0 0 1 -5.3716 50.0981 A 10 10 0 0 1 -7.4158 51.4256 A 24 24 0 0 1 -23.7428 53.1417 A 0.8 0.8 0 0 1 -24.0195 51.7182 A 10 10 0 0 1 -22.8364 50.9789 A 50 50 0 0 1 -10.6104 46.4078 A 10 10 0 0 1 -5.5374 46.5584 A 1.8 1.8 0 0 1 -4.4653 47.4235 z" />
  <path d="M-3.2 55 A 0.7 0.7 0 0 1 -3.45 55.5362 A 35 35 0 0 1 -11.7118 60.6988 A 5 5 0 0 1 -14.5277 61.0695 A 70 70 0 0 1 -26.2515 58.1573 A 0.32 0.32 0 0 1 -26.0983 57.5384 A 200 200 0 0 0 -14.6728 58.9919 A 8 8 0 0 0 -10.8436 58.4264 A 53 53 0 0 0 -3.6482 54.7981 A 0.3 0.3 0 0 1 -3.2364 54.8999 z" />
 </g>
</svg>