<?xml version="1.0" encoding="utf-8"?>

<svg xmlns="http://www.w3.org/2000/svg" width="256" height="256">
  <defs>
    <radialGradient id="myGradient" spreadMethod="repeat">
      <stop offset="0%" stop-color="gold" />
      <stop offset="50%" stop-color="red" />
      <stop offset="100%" stop-color="gold" />
	  <!-- values here were calculated to approximate a sine curve -->
	  <animate attributeName="r" dur="10s" 
	  values="15.0000%;15.6267%;16.2434%;16.8406%;17.4088%;17.9389%;18.4227%;18.8526%;19.2216%;19.5241%;19.7553%;19.9114%;19.9901%;19.9901%;19.9114%;19.7553%;19.5241%;19.2216%;18.8526%;18.4227%;17.9389%;17.4088%;16.8406%;16.2434%;15.6267%;15.0000%;14.3733%;13.7566%;13.1594%;12.5912%;12.0611%;11.5773%;11.1474%;10.7784%;10.4759%;10.2447%;10.0886%;10.0099%;10.0099%;10.0886%;10.2447%;10.4759%;10.7784%;11.1474%;11.5773%;12.0611%;12.5912%;13.1594%;13.7566%;14.3733%;15.0000%;" 
	  repeatCount="indefinite" />
    </radialGradient>
  </defs>
<g transform="scale(1.274595428114559, -1.274595428114559), translate(100 -100)" fill="url('#myGradient')">
  <path d="M0 0 A 17.6777 17.6777 0 0 1 -13.8893 20.7867 A 17.6777 17.6777 0 0 0 -27.7785 41.5735 A 17.6777 17.6777 0 0 1 -41.6678 62.3602 A 17.6777 17.6777 0 0 0 -55.557 83.147 A 100 100 0 0 0 -47.1397 88.1921 A 17.6777 17.6777 0 0 1 -35.3548 66.1441 A 17.6777 17.6777 0 0 0 -23.5698 44.0961 A 17.6777 17.6777 0 0 1 -11.7849 22.048 A 17.6777 17.6777 0 0 0 0 0 z" />
  <path d="M0 0 A 17.6777 17.6777 0 0 1 -9.5671 23.097 A 17.6777 17.6777 0 0 0 -19.1342 46.194 A 17.6777 17.6777 0 0 1 -28.7013 69.291 A 17.6777 17.6777 0 0 0 -38.2683 92.388 A 100 100 0 0 0 -29.0285 95.694 A 17.6777 17.6777 0 0 1 -21.7714 71.7705 A 17.6777 17.6777 0 0 0 -14.5142 47.847 A 17.6777 17.6777 0 0 1 -7.2571 23.9235 A 17.6777 17.6777 0 0 0 0 0 z" />
  <path d="M0 0 A 17.6777 17.6777 0 0 1 -4.8773 24.5196 A 17.6777 17.6777 0 0 0 -9.7545 49.0393 A 17.6777 17.6777 0 0 1 -14.6318 73.5589 A 17.6777 17.6777 0 0 0 -19.509 98.0785 A 100 100 0 0 0 -9.8017 99.5185 A 17.6777 17.6777 0 0 1 -7.3513 74.6389 A 17.6777 17.6777 0 0 0 -4.9009 49.7592 A 17.6777 17.6777 0 0 1 -2.4504 24.8796 A 17.6777 17.6777 0 0 0 0 0 z" />
  <path d="M0 0 A 17.6777 17.6777 0 0 1 0 25 A 17.6777 17.6777 0 0 0 0 50 A 17.6777 17.6777 0 0 1 0 75 A 17.6777 17.6777 0 0 0 0 100 A 100 100 0 0 0 9.8017 99.5185 A 17.6777 17.6777 0 0 1 7.3513 74.6389 A 17.6777 17.6777 0 0 0 4.9009 49.7592 A 17.6777 17.6777 0 0 1 2.4504 24.8796 A 17.6777 17.6777 0 0 0 0 0 z" />
  <path d="M0 0 A 17.6777 17.6777 0 0 1 4.8773 24.5196 A 17.6777 17.6777 0 0 0 9.7545 49.0393 A 17.6777 17.6777 0 0 1 14.6318 73.5589 A 17.6777 17.6777 0 0 0 19.509 98.0785 A 100 100 0 0 0 29.0285 95.694 A 17.6777 17.6777 0 0 1 21.7714 71.7705 A 17.6777 17.6777 0 0 0 14.5142 47.847 A 17.6777 17.6777 0 0 1 7.2571 23.9235 A 17.6777 17.6777 0 0 0 0 0 z" />
  <path d="M0 0 A 17.6777 17.6777 0 0 1 9.5671 23.097 A 17.6777 17.6777 0 0 0 19.1342 46.194 A 17.6777 17.6777 0 0 1 28.7013 69.291 A 17.6777 17.6777 0 0 0 38.2683 92.388 A 100 100 0 0 0 47.1397 88.1921 A 17.6777 17.6777 0 0 1 35.3548 66.1441 A 17.6777 17.6777 0 0 0 23.5698 44.0961 A 17.6777 17.6777 0 0 1 11.7849 22.048 A 17.6777 17.6777 0 0 0 0 0 z" />
  <path d="M0 0 A 17.6777 17.6777 0 0 1 13.8893 20.7867 A 17.6777 17.6777 0 0 0 27.7785 41.5735 A 17.6777 17.6777 0 0 1 41.6678 62.3602 A 17.6777 17.6777 0 0 0 55.557 83.147 A 100 100 0 0 0 63.4393 77.301 A 17.6777 17.6777 0 0 1 47.5795 57.9758 A 17.6777 17.6777 0 0 0 31.7197 38.6505 A 17.6777 17.6777 0 0 1 15.8598 19.3253 A 17.6777 17.6777 0 0 0 0 0 z" />
  <path d="M0 0 A 17.6777 17.6777 0 0 1 17.6777 17.6777 A 17.6777 17.6777 0 0 0 35.3553 35.3553 A 17.6777 17.6777 0 0 1 53.033 53.033 A 17.6777 17.6777 0 0 0 70.7107 70.7107 A 100 100 0 0 0 77.301 63.4393 A 17.6777 17.6777 0 0 1 57.9758 47.5795 A 17.6777 17.6777 0 0 0 38.6505 31.7197 A 17.6777 17.6777 0 0 1 19.3253 15.8598 A 17.6777 17.6777 0 0 0 0 0 z" />
  <path d="M0 0 A 17.6777 17.6777 0 0 1 20.7867 13.8893 A 17.6777 17.6777 0 0 0 41.5735 27.7785 A 17.6777 17.6777 0 0 1 62.3602 41.6678 A 17.6777 17.6777 0 0 0 83.147 55.557 A 100 100 0 0 0 88.1921 47.1397 A 17.6777 17.6777 0 0 1 66.1441 35.3548 A 17.6777 17.6777 0 0 0 44.0961 23.5698 A 17.6777 17.6777 0 0 1 22.048 11.7849 A 17.6777 17.6777 0 0 0 0 0 z" />
  <path d="M0 0 A 17.6777 17.6777 0 0 1 23.097 9.5671 A 17.6777 17.6777 0 0 0 46.194 19.1342 A 17.6777 17.6777 0 0 1 69.291 28.7013 A 17.6777 17.6777 0 0 0 92.388 38.2683 A 100 100 0 0 0 95.694 29.0285 A 17.6777 17.6777 0 0 1 71.7705 21.7714 A 17.6777 17.6777 0 0 0 47.847 14.5142 A 17.6777 17.6777 0 0 1 23.9235 7.2571 A 17.6777 17.6777 0 0 0 0 0 z" />
  <path d="M0 0 A 17.6777 17.6777 0 0 1 24.5196 4.8773 A 17.6777 17.6777 0 0 0 49.0393 9.7545 A 17.6777 17.6777 0 0 1 73.5589 14.6318 A 17.6777 17.6777 0 0 0 98.0785 19.509 A 100 100 0 0 0 99.5185 9.8017 A 17.6777 17.6777 0 0 1 74.6389 7.3513 A 17.6777 17.6777 0 0 0 49.7592 4.9009 A 17.6777 17.6777 0 0 1 24.8796 2.4504 A 17.6777 17.6777 0 0 0 0 0 z" />
  <path d="M0 0 A 17.6777 17.6777 0 0 1 25 0 A 17.6777 17.6777 0 0 0 50 0 A 17.6777 17.6777 0 0 1 75 0 A 17.6777 17.6777 0 0 0 100 0 A 100 100 0 0 0 99.5185 -9.8017 A 17.6777 17.6777 0 0 1 74.6389 -7.3513 A 17.6777 17.6777 0 0 0 49.7592 -4.9009 A 17.6777 17.6777 0 0 1 24.8796 -2.4504 A 17.6777 17.6777 0 0 0 0 0 z" />
  <path d="M0 0 A 17.6777 17.6777 0 0 1 24.5196 -4.8773 A 17.6777 17.6777 0 0 0 49.0393 -9.7545 A 17.6777 17.6777 0 0 1 73.5589 -14.6318 A 17.6777 17.6777 0 0 0 98.0785 -19.509 A 100 100 0 0 0 95.694 -29.0285 A 17.6777 17.6777 0 0 1 71.7705 -21.7714 A 17.6777 17.6777 0 0 0 47.847 -14.5142 A 17.6777 17.6777 0 0 1 23.9235 -7.2571 A 17.6777 17.6777 0 0 0 0 0 z" />
  <path d="M0 0 A 17.6777 17.6777 0 0 1 23.097 -9.5671 A 17.6777 17.6777 0 0 0 46.194 -19.1342 A 17.6777 17.6777 0 0 1 69.291 -28.7013 A 17.6777 17.6777 0 0 0 92.388 -38.2683 A 100 100 0 0 0 88.1921 -47.1397 A 17.6777 17.6777 0 0 1 66.1441 -35.3548 A 17.6777 17.6777 0 0 0 44.0961 -23.5698 A 17.6777 17.6777 0 0 1 22.048 -11.7849 A 17.6777 17.6777 0 0 0 0 0 z" />
  <path d="M0 0 A 17.6777 17.6777 0 0 1 20.7867 -13.8893 A 17.6777 17.6777 0 0 0 41.5735 -27.7785 A 17.6777 17.6777 0 0 1 62.3602 -41.6678 A 17.6777 17.6777 0 0 0 83.147 -55.557 A 100 100 0 0 0 77.301 -63.4393 A 17.6777 17.6777 0 0 1 57.9758 -47.5795 A 17.6777 17.6777 0 0 0 38.6505 -31.7197 A 17.6777 17.6777 0 0 1 19.3253 -15.8598 A 17.6777 17.6777 0 0 0 0 0 z" />
  <path d="M0 0 A 17.6777 17.6777 0 0 1 17.6777 -17.6777 A 17.6777 17.6777 0 0 0 35.3553 -35.3553 A 17.6777 17.6777 0 0 1 53.033 -53.033 A 17.6777 17.6777 0 0 0 70.7107 -70.7107 A 100 100 0 0 0 63.4393 -77.301 A 17.6777 17.6777 0 0 1 47.5795 -57.9758 A 17.6777 17.6777 0 0 0 31.7197 -38.6505 A 17.6777 17.6777 0 0 1 15.8598 -19.3253 A 17.6777 17.6777 0 0 0 0 0 z" />
  <path d="M0 0 A 17.6777 17.6777 0 0 1 13.8893 -20.7867 A 17.6777 17.6777 0 0 0 27.7785 -41.5735 A 17.6777 17.6777 0 0 1 41.6678 -62.3602 A 17.6777 17.6777 0 0 0 55.557 -83.147 A 100 100 0 0 0 47.1397 -88.1921 A 17.6777 17.6777 0 0 1 35.3548 -66.1441 A 17.6777 17.6777 0 0 0 23.5698 -44.0961 A 17.6777 17.6777 0 0 1 11.7849 -22.048 A 17.6777 17.6777 0 0 0 0 0 z" />
  <path d="M0 0 A 17.6777 17.6777 0 0 1 9.5671 -23.097 A 17.6777 17.6777 0 0 0 19.1342 -46.194 A 17.6777 17.6777 0 0 1 28.7013 -69.291 A 17.6777 17.6777 0 0 0 38.2683 -92.388 A 100 100 0 0 0 29.0285 -95.694 A 17.6777 17.6777 0 0 1 21.7714 -71.7705 A 17.6777 17.6777 0 0 0 14.5142 -47.847 A 17.6777 17.6777 0 0 1 7.2571 -23.9235 A 17.6777 17.6777 0 0 0 0 0 z" />
  <path d="M0 0 A 17.6777 17.6777 0 0 1 4.8773 -24.5196 A 17.6777 17.6777 0 0 0 9.7545 -49.0393 A 17.6777 17.6777 0 0 1 14.6318 -73.5589 A 17.6777 17.6777 0 0 0 19.509 -98.0785 A 100 100 0 0 0 9.8017 -99.5185 A 17.6777 17.6777 0 0 1 7.3513 -74.6389 A 17.6777 17.6777 0 0 0 4.9009 -49.7592 A 17.6777 17.6777 0 0 1 2.4504 -24.8796 A 17.6777 17.6777 0 0 0 0 0 z" />
  <path d="M0 0 A 17.6777 17.6777 0 0 1 0 -25 A 17.6777 17.6777 0 0 0 0 -50 A 17.6777 17.6777 0 0 1 0 -75 A 17.6777 17.6777 0 0 0 0 -100 A 100 100 0 0 0 -9.8017 -99.5185 A 17.6777 17.6777 0 0 1 -7.3513 -74.6389 A 17.6777 17.6777 0 0 0 -4.9009 -49.7592 A 17.6777 17.6777 0 0 1 -2.4504 -24.8796 A 17.6777 17.6777 0 0 0 0 0 z" />
  <path d="M0 0 A 17.6777 17.6777 0 0 1 -4.8773 -24.5196 A 17.6777 17.6777 0 0 0 -9.7545 -49.0393 A 17.6777 17.6777 0 0 1 -14.6318 -73.5589 A 17.6777 17.6777 0 0 0 -19.509 -98.0785 A 100 100 0 0 0 -29.0285 -95.694 A 17.6777 17.6777 0 0 1 -21.7714 -71.7705 A 17.6777 17.6777 0 0 0 -14.5142 -47.847 A 17.6777 17.6777 0 0 1 -7.2571 -23.9235 A 17.6777 17.6777 0 0 0 0 0 z" />
  <path d="M0 0 A 17.6777 17.6777 0 0 1 -9.5671 -23.097 A 17.6777 17.6777 0 0 0 -19.1342 -46.194 A 17.6777 17.6777 0 0 1 -28.7013 -69.291 A 17.6777 17.6777 0 0 0 -38.2683 -92.388 A 100 100 0 0 0 -47.1397 -88.1921 A 17.6777 17.6777 0 0 1 -35.3548 -66.1441 A 17.6777 17.6777 0 0 0 -23.5698 -44.0961 A 17.6777 17.6777 0 0 1 -11.7849 -22.048 A 17.6777 17.6777 0 0 0 0 0 z" />
  <path d="M0 0 A 17.6777 17.6777 0 0 1 -13.8893 -20.7867 A 17.6777 17.6777 0 0 0 -27.7785 -41.5735 A 17.6777 17.6777 0 0 1 -41.6678 -62.3602 A 17.6777 17.6777 0 0 0 -55.557 -83.147 A 100 100 0 0 0 -63.4393 -77.301 A 17.6777 17.6777 0 0 1 -47.5795 -57.9758 A 17.6777 17.6777 0 0 0 -31.7197 -38.6505 A 17.6777 17.6777 0 0 1 -15.8598 -19.3253 A 17.6777 17.6777 0 0 0 0 0 z" />
  <path d="M0 0 A 17.6777 17.6777 0 0 1 -17.6777 -17.6777 A 17.6777 17.6777 0 0 0 -35.3553 -35.3553 A 17.6777 17.6777 0 0 1 -53.033 -53.033 A 17.6777 17.6777 0 0 0 -70.7107 -70.7107 A 100 100 0 0 0 -77.301 -63.4393 A 17.6777 17.6777 0 0 1 -57.9758 -47.5795 A 17.6777 17.6777 0 0 0 -38.6505 -31.7197 A 17.6777 17.6777 0 0 1 -19.3253 -15.8598 A 17.6777 17.6777 0 0 0 0 0 z" />
  <path d="M0 0 A 17.6777 17.6777 0 0 1 -20.7867 -13.8893 A 17.6777 17.6777 0 0 0 -41.5735 -27.7785 A 17.6777 17.6777 0 0 1 -62.3602 -41.6678 A 17.6777 17.6777 0 0 0 -83.147 -55.557 A 100 100 0 0 0 -88.1921 -47.1397 A 17.6777 17.6777 0 0 1 -66.1441 -35.3548 A 17.6777 17.6777 0 0 0 -44.0961 -23.5698 A 17.6777 17.6777 0 0 1 -22.048 -11.7849 A 17.6777 17.6777 0 0 0 0 0 z" />
  <path d="M0 0 A 17.6777 17.6777 0 0 1 -23.097 -9.5671 A 17.6777 17.6777 0 0 0 -46.194 -19.1342 A 17.6777 17.6777 0 0 1 -69.291 -28.7013 A 17.6777 17.6777 0 0 0 -92.388 -38.2683 A 100 100 0 0 0 -95.694 -29.0285 A 17.6777 17.6777 0 0 1 -71.7705 -21.7714 A 17.6777 17.6777 0 0 0 -47.847 -14.5142 A 17.6777 17.6777 0 0 1 -23.9235 -7.2571 A 17.6777 17.6777 0 0 0 0 0 z" />
  <path d="M0 0 A 17.6777 17.6777 0 0 1 -24.5196 -4.8773 A 17.6777 17.6777 0 0 0 -49.0393 -9.7545 A 17.6777 17.6777 0 0 1 -73.5589 -14.6318 A 17.6777 17.6777 0 0 0 -98.0785 -19.509 A 100 100 0 0 0 -99.5185 -9.8017 A 17.6777 17.6777 0 0 1 -74.6389 -7.3513 A 17.6777 17.6777 0 0 0 -49.7592 -4.9009 A 17.6777 17.6777 0 0 1 -24.8796 -2.4504 A 17.6777 17.6777 0 0 0 0 0 z" />
  <path d="M0 0 A 17.6777 17.6777 0 0 1 -25 0 A 17.6777 17.6777 0 0 0 -50 0 A 17.6777 17.6777 0 0 1 -75 0 A 17.6777 17.6777 0 0 0 -100 0 A 100 100 0 0 0 -99.5185 9.8017 A 17.6777 17.6777 0 0 1 -74.6389 7.3513 A 17.6777 17.6777 0 0 0 -49.7592 4.9009 A 17.6777 17.6777 0 0 1 -24.8796 2.4504 A 17.6777 17.6777 0 0 0 0 0 z" />
  <path d="M0 0 A 17.6777 17.6777 0 0 1 -24.5196 4.8773 A 17.6777 17.6777 0 0 0 -49.0393 9.7545 A 17.6777 17.6777 0 0 1 -73.5589 14.6318 A 17.6777 17.6777 0 0 0 -98.0785 19.509 A 100 100 0 0 0 -95.694 29.0285 A 17.6777 17.6777 0 0 1 -71.7705 21.7714 A 17.6777 17.6777 0 0 0 -47.847 14.5142 A 17.6777 17.6777 0 0 1 -23.9235 7.2571 A 17.6777 17.6777 0 0 0 0 0 z" />
  <path d="M0 0 A 17.6777 17.6777 0 0 1 -23.097 9.5671 A 17.6777 17.6777 0 0 0 -46.194 19.1342 A 17.6777 17.6777 0 0 1 -69.291 28.7013 A 17.6777 17.6777 0 0 0 -92.388 38.2683 A 100 100 0 0 0 -88.1921 47.1397 A 17.6777 17.6777 0 0 1 -66.1441 35.3548 A 17.6777 17.6777 0 0 0 -44.0961 23.5698 A 17.6777 17.6777 0 0 1 -22.048 11.7849 A 17.6777 17.6777 0 0 0 0 0 z" />
  <path d="M0 0 A 17.6777 17.6777 0 0 1 -20.7867 13.8893 A 17.6777 17.6777 0 0 0 -41.5735 27.7785 A 17.6777 17.6777 0 0 1 -62.3602 41.6678 A 17.6777 17.6777 0 0 0 -83.147 55.557 A 100 100 0 0 0 -77.301 63.4393 A 17.6777 17.6777 0 0 1 -57.9758 47.5795 A 17.6777 17.6777 0 0 0 -38.6505 31.7197 A 17.6777 17.6777 0 0 1 -19.3253 15.8598 A 17.6777 17.6777 0 0 0 0 0 z" />
  <path d="M0 0 A 17.6777 17.6777 0 0 1 -17.6777 17.6777 A 17.6777 17.6777 0 0 0 -35.3553 35.3553 A 17.6777 17.6777 0 0 1 -53.033 53.033 A 17.6777 17.6777 0 0 0 -70.7107 70.7107 A 100 100 0 0 0 -63.4393 77.301 A 17.6777 17.6777 0 0 1 -47.5795 57.9758 A 17.6777 17.6777 0 0 0 -31.7197 38.6505 A 17.6777 17.6777 0 0 1 -15.8598 19.3253 A 17.6777 17.6777 0 0 0 0 0 z" />
 </g>
</svg>