<?xml version="1.0" encoding="utf-8"?>

<svg xmlns="http://www.w3.org/2000/svg" width="870" height="300">

<g transform="scale(2.8759329676840384, -2.8759329676840384), translate(151.0213828836495 -102.75379481520064)" fill="white">
  <path d="M0 22.8 A 20 20 0 0 1 -10.5984 19.761 L -31.7996 6.513 A 40 40 0 0 0 -63.3491 1.7979 A 100 100 0 0 0 -94.8249 16.4752 A 20 20 0 0 0 -97.9804 19.2183 A 30 30 0 0 1 -121.4911 28.7173 A 27 27 0 0 0 -149.8672 54.2672 A 10 10 0 0 0 -147.8672 60.8087 A 100 100 0 0 0 -132.2824 77.2316 A 12 12 0 0 1 -128.1782 88.5079 L -114.3894 100.0781 A 100 100 0 0 0 -131.2188 67.7491 A 18 18 0 0 1 -134.6413 52.9248 A 10 10 0 0 1 -132.0532 48.0574 A 30 30 0 0 1 -108.3803 38.9702 A 46 46 0 0 1 -85.8662 46.7224 A 10 10 0 0 1 -85.1649 47.2413 L -69.622 59.8277 A 33 33 0 0 0 -37.0283 64.9901 A 300 300 0 0 0 -13.0273 54.5542 A 29.7176 29.7176 0 0 1 0 51.5466 A 29.7176 29.7176 0 0 1 13.0273 54.5542 A 300 300 0 0 0 37.0283 64.9901 A 33 33 0 0 0 69.622 59.8277 L 85.1649 47.2413 A 10 10 0 0 1 85.8662 46.7224 A 46 46 0 0 1 108.3803 38.9702 A 30 30 0 0 1 132.0532 48.0574 A 10 10 0 0 1 134.6412 52.9248 A 18 18 0 0 1 131.2188 67.7491 A 100 100 0 0 0 114.3894 100.0781 L 128.1782 88.5079 A 12 12 0 0 1 132.2824 77.2316 A 100 100 0 0 0 147.8672 60.8087 A 10 10 0 0 0 149.8672 54.2672 A 27 27 0 0 0 121.4911 28.7173 A 30 30 0 0 1 97.9804 19.2183 A 20 20 0 0 0 94.8248 16.4752 A 100 100 0 0 0 63.3491 1.7979 A 40 40 0 0 0 31.7996 6.513 L 10.5984 19.761 A 20 20 0 0 1 0 22.8 z" />
  <path d="M-19.6 38.2 A 10 10 0 0 0 -22.8635 39.3878 L -38.452 48.3878 A 25 25 0 0 1 -67.0217 45.8883 A 80 80 0 0 1 -80.9702 30.7193 A 20 20 0 0 0 -77.8158 29.235 A 100 100 0 0 1 -62.0436 21.8131 A 28 28 0 0 1 -36.3953 25.0988 z"  fill="red"/>
  <path d="M19.6 38.2 A 10 10 0 0 1 22.8635 39.3878 L 38.452 48.3878 A 25 25 0 0 0 67.0217 45.8883 A 80 80 0 0 0 80.9702 30.7193 A 20 20 0 0 1 77.8158 29.235 A 100 100 0 0 0 62.0436 21.8131 A 28 28 0 0 0 36.3953 25.0988 z"  fill="red"/>
 </g>
</svg>