<?xml version="1.0" encoding="utf-8"?>
<svg xmlns="http://www.w3.org/2000/svg" xmlns:xlink="http://www.w3.org/1999/xlink" width="32" height="32">

<g transform="scale(1, -1), translate(0 -32)">
  <line x1="1.1314" y1="1.1314" x2="8.5486" y2="8.5486"  stroke-width="3.2" stroke="#000" />
  <circle cx="17.5996" cy="17.5996" r="12.8" stroke-width="3.2" stroke="#000" fill="none"/>
  <path d="M11.717 11.5395 L 11.717 23.6995 L 11.717 23.6995 A 1.92 1.92 0 0 0 13.637 25.6195 L 20.573 25.6195 L 23.717 22.4755 L 23.717 11.5395 L 23.717 11.5395 A 1.92 1.92 0 0 0 21.797 9.6195 L 13.637 9.6195 L 13.637 9.6195 A 1.92 1.92 0 0 0 11.717 11.5395 z"  stroke-width="0" stroke-linejoin="round" stroke-linecap="round" fill="#000000"/>
  <polyline points="20.093,25.6195, 20.093,21.9955, 23.717,21.9955"  stroke-width="0.96" stroke="#FFF" stroke-linejoin="round" stroke-linecap="round" fill="none" />
  <text transform="translate(14.631572464769834 13.296533933804799) scale(1 -1) rotate(0)" font-size="9.6" font-family="Arial"  stroke-width="0.96" stroke="#FFF" stroke-linejoin="round" stroke-linecap="round" fill="#FFF">A</text>
 </g>
</svg>