<?xml version="1.0" encoding="utf-8"?>
<svg xmlns="http://www.w3.org/2000/svg" xmlns:xlink="http://www.w3.org/1999/xlink" width="32" height="32">
<g transform="scale(1, -1), translate(32 -16)">
  <path d="M-31.248 3.76 L -31.248 3.76 A 3.008 3.008 0 0 0 -28.24 6.768 L -20.72 6.768 L -20.72 6.768 A 3.008 3.008 0 0 0 -17.712 3.76 L -17.712 -3.76 L -17.712 -3.76 A 3.008 3.008 0 0 0 -20.72 -6.768 L -28.24 -6.768 L -28.24 -6.768 A 3.008 3.008 0 0 0 -31.248 -3.76 L -31.248 3.76 z"  stroke-width="1.504" stroke="#000" stroke-linejoin="round" stroke-linecap="round" fill="#fff"/>
  <text transform="translate(-29.6 -3.2) scale(1 -1) rotate(0)" font-size="9.6" font-family="Arial"  stroke-width="0.32" stroke="#000" stroke-linejoin="round" stroke-linecap="round" fill="#000">01</text>
  <path d="M-14.288 3.76 L -14.288 3.76 A 3.008 3.008 0 0 0 -11.28 6.768 L -3.76 6.768 L -3.76 6.768 A 3.008 3.008 0 0 0 -0.752 3.76 L -0.752 -3.76 L -0.752 -3.76 A 3.008 3.008 0 0 0 -3.76 -6.768 L -11.28 -6.768 L -11.28 -6.768 A 3.008 3.008 0 0 0 -14.288 -3.76 L -14.288 3.76 z"  stroke-width="1.504" stroke="#000" stroke-linejoin="round" stroke-linecap="round" fill="#fff"/>
  <text transform="translate(-13.28 -3.2) scale(1 -1) rotate(0)" font-size="9.6" font-family="Arial"  stroke-width="0.32" stroke="#000" stroke-linejoin="round" stroke-linecap="round" fill="#000">10</text>
  <path d="M -22.4059 8.6008 A 6.08 6.08 0 0 0 -11.1153 11.8384"  stroke-width="1.216" stroke="#000" stroke-linejoin="round" stroke-linecap="round" fill="none"/>
  <polygon points="-9.0306,13.0909, -8.9458,8.2277, -13.1999,10.5858, -9.0306,13.0909"  stroke-width="0" stroke-linejoin="round" stroke-linecap="round" fill="#000" />
  <path d="M -9.8263 -8.6936 A 6.08 6.08 0 0 0 -21.1978 -11.6345"  stroke-width="1.216" stroke="#000" stroke-linejoin="round" stroke-linecap="round" fill="none"/>
  <polygon points="-23.3145,-12.832, -23.2721,-7.9682, -19.0811,-10.4369, -23.3145,-12.832"  stroke-width="0" stroke-linejoin="round" stroke-linecap="round" fill="#000" />
 </g>
</svg>