<?xml version="1.0" encoding="utf-8"?>
<svg xmlns="http://www.w3.org/2000/svg" xmlns:xlink="http://www.w3.org/1999/xlink" width="32" height="32">
<g transform="scale(1, -1), translate(16 -16)">
  <path d="M16 -8 L 16 8 L 16 8 A 3.2 3.2 0 0 1 12.8 11.2 L -12.8 11.2 L -12.8 11.2 A 3.2 3.2 0 0 1 -16 8 L -16 -8 L -16 -8 A 3.2 3.2 0 0 1 -12.8 -11.2 L 12.8 -11.2 L 12.8 -11.2 A 3.2 3.2 0 0 1 16 -8 z"  stroke-width="0" fill="#000000"/>
  <circle cx="0" cy="0" r="6.4" stroke-width="0" fill="#FFFFFF"/>
  <line x1="0" y1="-11.2" x2="0" y2="11.2"  stroke-width="2.24" stroke="#FFFFFF" />
  <line x1="-16" y1="0" x2="16" y2="0"  stroke-width="2.24" stroke="#FFFFFF" />
 </g>
</svg>