<?xml version="1.0" encoding="utf-8"?>
<svg xmlns="http://www.w3.org/2000/svg" xmlns:xlink="http://www.w3.org/1999/xlink" width="32" height="32">


<g transform="scale(0.16594441063503962, -0.16594441063503962), translate(7.894086162275954 -99.61336250665036)">
  <path d="M0 0 L 0 0 A 24 24 0 0 0 26.0917 23.9087 L 26.0917 23.9087 A 50 50 0 0 0 56.6661 90.9981 L 56.6661 90.9981 A 24 24 0 0 0 87.4674 73.5715 L 87.4674 73.5715 A 50 50 0 0 0 160.7212 65.2253 L 160.7212 65.2253 A 24 24 0 0 0 153.6657 30.5464 L 153.6657 30.5464 A 50 50 0 0 0 168.3647 -41.7012 L 168.3647 -41.7012 A 24 24 0 0 0 133.2028 -45.7074 L 133.2028 -45.7074 A 50 50 0 0 0 69.0335 -82.0126 L 69.0335 -82.0126 A 24 24 0 0 0 54.3578 -49.8097 L 54.3578 -49.8097 A 50 50 0 0 0 0 0 z"  stroke-width="0" fill="#FFFFFF"/>
  <circle cx="7.7858" cy="17.6947" r="7" stroke-width="0" fill="#000000"/>
  <circle cx="26.0917" cy="23.9087" r="7" stroke-width="0" fill="#000000"/>
  <circle cx="22.1213" cy="44.0997" r="7" stroke-width="0" fill="#000000"/>
  <circle cx="26.6189" cy="64.1799" r="7" stroke-width="0" fill="#000000"/>
  <circle cx="38.8229" cy="80.7481" r="7" stroke-width="0" fill="#000000"/>
  <circle cx="56.6661" cy="90.9981" r="7" stroke-width="0" fill="#000000"/>
  <circle cx="75.9007" cy="89.0612" r="7" stroke-width="0" fill="#000000"/>
  <circle cx="87.4674" cy="73.5715" r="7" stroke-width="0" fill="#000000"/>
  <circle cx="105.4433" cy="83.587" r="7" stroke-width="0" fill="#000000"/>
  <circle cx="125.9305" cy="85.5146" r="7" stroke-width="0" fill="#000000"/>
  <circle cx="145.4591" cy="79.0278" r="7" stroke-width="0" fill="#000000"/>
  <circle cx="160.7212" cy="65.2253" r="7" stroke-width="0" fill="#000000"/>
  <circle cx="164.823" cy="46.3336" r="7" stroke-width="0" fill="#000000"/>
  <circle cx="153.6657" cy="30.5464" r="7" stroke-width="0" fill="#000000"/>
  <circle cx="168.7459" cy="16.5453" r="7" stroke-width="0" fill="#000000"/>
  <circle cx="176.9101" cy="-2.3435" r="7" stroke-width="0" fill="#000000"/>
  <circle cx="176.7754" cy="-22.9208" r="7" stroke-width="0" fill="#000000"/>
  <circle cx="168.3647" cy="-41.7012" r="7" stroke-width="0" fill="#000000"/>
  <circle cx="151.6651" cy="-51.4401" r="7" stroke-width="0" fill="#000000"/>
  <circle cx="133.2028" cy="-45.7074" r="7" stroke-width="0" fill="#000000"/>
  <circle cx="124.547" cy="-64.376" r="7" stroke-width="0" fill="#000000"/>
  <circle cx="109.1055" cy="-77.9776" r="7" stroke-width="0" fill="#000000"/>
  <circle cx="89.4937" cy="-84.2082" r="7" stroke-width="0" fill="#000000"/>
  <circle cx="69.0335" cy="-82.0126" r="7" stroke-width="0" fill="#000000"/>
  <circle cx="54.6108" cy="-69.1399" r="7" stroke-width="0" fill="#000000"/>
  <circle cx="54.3578" cy="-49.8097" r="7" stroke-width="0" fill="#000000"/>
  <circle cx="33.928" cy="-47.3465" r="7" stroke-width="0" fill="#000000"/>
  <circle cx="16.2205" cy="-36.8639" r="7" stroke-width="0" fill="#000000"/>
  <circle cx="4.2344" cy="-20.1373" r="7" stroke-width="0" fill="#000000"/>
  <circle cx="0" cy="0" r="7" stroke-width="0" fill="#000000"/>
 </g>
</svg>