<?xml version="1.0" encoding="utf-8"?>
<svg xmlns="http://www.w3.org/2000/svg" xmlns:xlink="http://www.w3.org/1999/xlink" width="32" height="32">
<g transform="scale(1, -1), translate(16 -16)">
  <path d="M16 -7.04 L 16 7.04 L 16 7.04 A 4.16 4.16 0 0 1 11.84 11.2 L -11.84 11.2 L -11.84 11.2 A 4.16 4.16 0 0 1 -16 7.04 L -16 -7.04 L -16 -7.04 A 4.16 4.16 0 0 1 -11.84 -11.2 L 11.84 -11.2 L 11.84 -11.2 A 4.16 4.16 0 0 1 16 -7.04 z"  stroke-width="0" fill="#000000"/>
  <circle cx="0" cy="0" r="8.96" stroke-width="0" fill="#FFFFFF"/>
  <polyline points="-1.6,0, -1.6,-6.4, 4.8,0, -1.6,6.4, -1.6,0"  stroke-width="1.28" stroke="#000000" fill="none" />
  <polyline points="-0.96,0, -0.96,-5.12, 4.16,0, -0.96,5.12, -0.96,0"  stroke-width="1.024" stroke="#008000" fill="none" />
 </g>
</svg>